HIERARCHY
ROOT Hips
{
	OFFSET 0.000000 0.000000 0.000000
	CHANNELS 6 Xposition Yposition Zposition Zrotation Yrotation Xrotation 
	JOINT LHipJoint
	{
		OFFSET 0.000000 0.000000 0.000000
		CHANNELS 3 Zrotation Yrotation Xrotation
		JOINT LeftUpLeg
		{
			OFFSET 1.363060 -1.794630 0.839290
			CHANNELS 3 Zrotation Yrotation Xrotation
			JOINT LeftLeg
			{
				OFFSET 2.448110 -6.726130 0.000000
				CHANNELS 3 Zrotation Yrotation Xrotation
				JOINT LeftFoot
				{
					OFFSET 2.562200 -7.039590 0.000000
					CHANNELS 3 Zrotation Yrotation Xrotation
					JOINT LeftToeBase
					{
						OFFSET 0.157640 -0.433110 2.322550
						CHANNELS 3 Zrotation Yrotation Xrotation
						End Site
						{
							OFFSET 0.000000 0.000000 0.000000
						}
					}
				}
			}
		}
	}
	JOINT RHipJoint
	{
		OFFSET 0.000000 0.000000 0.000000
		CHANNELS 3 Zrotation Yrotation Xrotation
		JOINT RightUpLeg
		{
			OFFSET -1.305520 -1.794630 0.839290
			CHANNELS 3 Zrotation Yrotation Xrotation
			JOINT RightLeg
			{
				OFFSET -2.542530 -6.985550 0.000000
				CHANNELS 3 Zrotation Yrotation Xrotation
				JOINT RightFoot
				{
					OFFSET -2.568260 -7.056230 0.000000
					CHANNELS 3 Zrotation Yrotation Xrotation
					JOINT RightToeBase
					{
						OFFSET -0.164730 -0.452590 2.363150
						CHANNELS 3 Zrotation Yrotation Xrotation
						End Site
						{
							OFFSET 0.000000 0.000000 0.000000
						}
					}
				}
			}
		}
	}
}
MOTION
Frames: 14
Frame Time: 0.008333
3.297228 17.232320 1.181118 176.701083 -81.027235 -165.836089 -11.586301 2.113611 -0.182648 -6.036732 20.758068 -13.181849 -2.771982 -1.135278 -2.762204 0.621105 5.195986 1.707287 0.936700 0.000000 -35.896200 9.585483 -1.414937 2.527676 0.725353 -1.936078 -10.116852 2.201503 1.522673 -3.017832 -0.428654 -3.550319 2.442373 -1.250300 -0.000000 -44.423400
3.309490 17.233258 1.165624 174.188012 -82.929542 -163.275231 -11.553803 2.088151 0.103484 -6.077983 19.348909 -13.526963 -2.737768 -1.132260 -2.543463 0.568334 4.768249 1.853051 0.895000 -0.000000 -36.015501 9.599196 -1.434752 2.355628 0.788560 -2.837132 -9.723488 2.143276 1.561387 -3.357338 -0.596562 -4.551917 2.320126 -1.445700 -0.000000 -44.163300
3.320679 17.233841 1.151188 169.235884 -84.886712 -158.239909 -11.553423 2.044380 0.394855 -6.137873 17.949338 -13.939505 -2.710685 -1.136198 -2.313122 0.504227 4.266822 2.016335 0.842200 0.000001 -36.175600 9.580838 -1.474514 2.193555 0.854783 -3.786077 -9.383448 2.090381 1.598675 -3.707510 -0.768612 -5.551838 2.207160 -1.640699 0.000000 -43.892899
3.330340 17.234190 1.138345 155.419900 -86.979787 -144.306616 -11.593375 1.910884 0.666513 -6.209904 16.563393 -14.378975 -2.689649 -1.177755 -2.076641 0.415447 3.669580 2.226034 0.780500 0.000000 -36.374100 9.525244 -1.607993 2.071792 0.927230 -4.784182 -9.102717 2.035636 1.604926 -4.101935 -0.960462 -6.575417 2.099266 -1.835200 -0.000000 -43.607400
3.338381 17.234525 1.127429 88.111402 -89.296800 -76.849197 -10.948444 1.692930 0.867461 -6.010314 15.201147 -14.801817 -2.720049 -1.306866 -1.785523 0.281020 2.911972 2.478132 0.710000 0.000000 -36.604900 10.127285 -1.825869 2.053212 1.332434 -5.826311 -8.916514 1.928355 1.521074 -4.588163 -1.196098 -7.687836 2.009401 -2.031300 0.000000 -43.299300
3.344600 17.234964 1.120876 18.729038 -88.608747 -7.255430 -10.748966 2.157624 1.504155 -5.819795 13.235329 -15.612626 -2.669079 -1.119406 -1.595484 0.312424 2.605087 2.477816 0.644900 0.000000 -36.799500 10.261150 -1.371210 1.591389 1.754418 -7.585173 -8.597903 2.010339 1.789210 -4.975153 -1.188314 -8.193920 2.190680 -2.197501 0.000000 -42.975000
3.351097 17.235589 1.114271 13.217946 -87.044863 -1.580612 -10.795965 2.192344 1.785898 -5.910236 12.206871 -16.056200 -2.672790 -1.115253 -1.643485 0.245157 2.045875 2.780445 0.574600 0.000000 -37.062700 10.198318 -1.366372 1.487174 1.811586 -8.343874 -8.403397 1.985516 1.866742 -5.382325 -1.318841 -9.029504 2.220659 -2.391900 0.000000 -42.629000
3.357079 17.236563 1.109979 10.631586 -85.541543 1.179488 -10.798375 2.210695 2.044320 -5.981850 11.319664 -16.494431 -2.687703 -1.128945 -1.729262 0.170773 1.464156 3.102448 0.498300 -0.000000 -37.323299 10.177126 -1.388026 1.433836 1.907040 -8.974303 -8.334072 1.954945 1.921725 -5.642408 -1.439229 -9.858612 2.178613 -2.593101 0.000000 -42.239100
3.364492 17.238008 1.107286 9.266241 -84.167429 2.678867 -10.780665 2.224993 2.275891 -6.045507 10.533507 -16.809311 -2.703584 -1.155055 -1.924846 0.101657 0.959553 3.465285 0.432100 0.000000 -37.561200 10.175758 -1.407440 1.390889 1.991070 -9.491583 -8.520279 1.912831 1.920580 -5.315925 -1.500404 -10.605566 1.832892 -2.785900 0.000000 -41.841400
3.374077 17.239942 1.105938 8.467182 -82.962044 3.573952 -10.756262 2.235215 2.471700 -6.107021 9.870280 -17.017726 -2.720159 -1.187635 -2.193257 0.039724 0.533868 3.844468 0.375201 0.000000 -37.763000 10.186387 -1.435063 1.366659 2.051875 -9.898617 -8.685781 1.869335 1.911129 -5.008202 -1.545709 -11.274064 1.529112 -2.966600 0.000000 -41.440400
3.386198 17.242377 1.105706 7.969432 -81.946386 4.146650 -10.731610 2.237459 2.632047 -6.167327 9.320881 -17.153437 -2.735663 -1.224589 -2.497942 -0.011942 0.208479 4.214404 0.331999 -0.000000 -37.915299 10.200722 -1.470119 1.364834 2.093631 -10.176460 -8.838922 1.826247 1.897289 -4.747717 -1.583329 -11.866157 1.282923 -3.132401 -0.000000 -41.035001
3.401935 17.245371 1.105983 7.714781 -81.136917 4.443253 -10.710138 2.226682 2.742123 -6.228461 8.890157 -17.198565 -2.748223 -1.261700 -2.814750 -0.051390 -0.003592 4.563256 0.306200 0.000001 -38.007500 10.217666 -1.507348 1.368115 2.102345 -10.347304 -8.948915 1.784692 1.877422 -4.555603 -1.616437 -12.350498 1.116738 -3.272000 -0.000000 -40.654700
3.421541 17.248940 1.106406 7.650151 -80.545974 4.533283 -10.695183 2.197290 2.795992 -6.292454 8.577360 -17.184969 -2.757207 -1.296096 -3.103238 -0.077253 -0.096524 4.868439 0.300300 0.000000 -38.033000 10.232920 -1.543485 1.372382 2.080501 -10.411288 -9.021712 1.746876 1.853746 -4.455803 -1.651846 -12.717341 1.045525 -3.379000 -0.000000 -40.305700
3.444860 17.253082 1.106501 7.767658 -80.182131 4.443294 -10.688688 2.145333 2.789470 -6.361514 8.377410 -17.140782 -2.762005 -1.325572 -3.332090 -0.088183 -0.063400 5.114614 0.317200 -0.000000 -37.990100 10.243824 -1.575029 1.372984 2.030280 -10.373784 -9.066601 1.714771 1.828147 -4.466283 -1.694195 -12.956209 1.082624 -3.448100 0.000000 -40.003500
